STARTFONT 2.1
FONT -FontForge-Eras Bold ITC-Book-R-Normal--30-290-75-75-P-178-ISO10646-1
SIZE 29 75 75
FONTBOUNDINGBOX 44 35 -5 -8
COMMENT "Generated by fontforge, http://fontforge.sourceforge.net"
COMMENT "Typeface: Copyright (c)1995 International Typeface Corporation. Data: Copyright (c) 1995 Microsoft Corportation. All rights reserved."
STARTPROPERTIES 40
FOUNDRY "FontForge"
FAMILY_NAME "Eras Bold ITC"
WEIGHT_NAME "Book"
SLANT "R"
SETWIDTH_NAME "Normal"
ADD_STYLE_NAME ""
PIXEL_SIZE 30
POINT_SIZE 290
RESOLUTION_X 75
RESOLUTION_Y 75
SPACING "P"
AVERAGE_WIDTH 178
CHARSET_REGISTRY "ISO10646"
CHARSET_ENCODING "1"
FONTNAME_REGISTRY ""
CHARSET_COLLECTIONS "Symbol ISO10646-1"
FONT_NAME "ErasITC-Bold"
FACE_NAME "Eras Bold ITC"
COPYRIGHT "Typeface: Copyright (c)1995 International Typeface Corporation. Data: Copyright (c) 1995 Microsoft Corportation. All rights reserved."
FONT_VERSION "1.01"
FONT_ASCENT 24
FONT_DESCENT 6
UNDERLINE_POSITION -4
UNDERLINE_THICKNESS 3
X_HEIGHT 14
CAP_HEIGHT 19
RAW_ASCENT 799
RAW_DESCENT 200
NORM_SPACE 8
RELATIVE_WEIGHT 40
RELATIVE_SETWIDTH 50
SUPERSCRIPT_X 0
SUPERSCRIPT_Y 14
SUPERSCRIPT_SIZE 19
SUBSCRIPT_X 0
SUBSCRIPT_Y 4
SUBSCRIPT_SIZE 19
FIGURE_WIDTH 20
AVG_LOWERCASE_WIDTH 173
AVG_UPPERCASE_WIDTH 215
ENDPROPERTIES
CHARS 250
STARTCHAR space
ENCODING 32
SWIDTH 250 0
DWIDTH 8 0
BBX 1 1 0 0
BITMAP
00
ENDCHAR
STARTCHAR exclam
ENCODING 33
SWIDTH 354 0
DWIDTH 11 0
BBX 7 20 2 0
BITMAP
7E
7E
7E
7E
7E
7E
7C
7C
7C
7C
7C
7C
7C
00
00
FC
FC
FC
FC
FC
ENDCHAR
STARTCHAR quotedbl
ENCODING 34
SWIDTH 396 0
DWIDTH 12 0
BBX 9 6 2 14
BITMAP
F780
F780
F780
E700
E700
E700
ENDCHAR
STARTCHAR numbersign
ENCODING 35
SWIDTH 651 0
DWIDTH 20 0
BBX 19 20 1 0
BITMAP
03C780
03C780
07CF80
078F00
078F00
3FFFE0
7FFFE0
7FFFE0
7FFFC0
0F1E00
0F1E00
7FFFC0
FFFFC0
FFFFC0
FFFF80
1E3C00
1E3C00
3E7C00
3C7800
3C7800
ENDCHAR
STARTCHAR dollar
ENCODING 36
SWIDTH 651 0
DWIDTH 20 0
BBX 14 26 3 -3
BITMAP
03E0
03E0
03E0
0FF8
1FFC
3FFC
7FFC
7F04
7F00
7F80
3FC0
1FE0
0FF0
07F0
03F8
01FC
00FC
C1FC
FFFC
FFFC
FFF8
FFF0
3FE0
07C0
07C0
07C0
ENDCHAR
STARTCHAR percent
ENCODING 37
SWIDTH 904 0
DWIDTH 27 0
BBX 26 20 1 0
BITMAP
1F00F000
3FC0E000
7FC1E000
7BE1C000
F1E38000
F1E38000
F1E70000
F1E73E00
F1EE7F80
F3DEFF80
7FDCF7C0
7FBDE3C0
1F39E3C0
0079E3C0
0071E3C0
00E1E3C0
00E1E780
01C0FF80
01C0FF00
03803E00
ENDCHAR
STARTCHAR ampersand
ENCODING 38
SWIDTH 767 0
DWIDTH 23 0
BBX 21 20 1 0
BITMAP
01FF00
03FF00
07FF00
0FFF00
0FE000
0FC000
0FC000
07E000
1FE000
3FF1F0
7FF9F0
7FFFF0
FCFFF0
FC7FE0
FC3FE0
FE3FC0
7FFFC0
7FFFE0
3FFFF0
0FE3F8
ENDCHAR
STARTCHAR quotesingle
ENCODING 39
SWIDTH 228 0
DWIDTH 7 0
BBX 4 6 2 14
BITMAP
F0
F0
F0
E0
E0
E0
ENDCHAR
STARTCHAR parenleft
ENCODING 40
SWIDTH 372 0
DWIDTH 11 0
BBX 8 27 2 -7
BITMAP
1F
3F
3E
3E
3E
7C
7C
7C
7C
7C
F8
F8
F8
F8
F8
F8
F8
F8
F8
F8
F8
78
78
78
7C
7C
3C
ENDCHAR
STARTCHAR parenright
ENCODING 41
SWIDTH 367 0
DWIDTH 11 0
BBX 8 27 0 -7
BITMAP
3E
3E
3E
3E
1F
1F
1F
1F
1F
1F
1F
1F
1F
1F
1F
1F
1F
3F
3E
3E
3E
3E
3E
7C
7C
7C
F8
ENDCHAR
STARTCHAR asterisk
ENCODING 42
SWIDTH 497 0
DWIDTH 15 0
BBX 11 10 3 10
BITMAP
0F00
0F00
4E40
7FE0
FFE0
3F80
3F80
7BC0
3380
1100
ENDCHAR
STARTCHAR plus
ENCODING 43
SWIDTH 651 0
DWIDTH 20 0
BBX 17 18 2 1
BITMAP
01E000
01E000
01E000
01E000
01E000
01E000
01E000
FFFF80
FFFF80
FFFF80
FFFF80
03C000
03C000
03C000
03C000
03C000
03C000
03C000
ENDCHAR
STARTCHAR comma
ENCODING 44
SWIDTH 294 0
DWIDTH 9 0
BBX 9 7 -1 -3
BITMAP
1F80
3F00
3E00
7C00
7C00
7800
F000
ENDCHAR
STARTCHAR hyphen
ENCODING 45
SWIDTH 267 0
DWIDTH 8 0
BBX 8 4 0 6
BITMAP
FF
FF
FF
FF
ENDCHAR
STARTCHAR period
ENCODING 46
SWIDTH 294 0
DWIDTH 9 0
BBX 6 5 1 0
BITMAP
FC
FC
FC
FC
FC
ENDCHAR
STARTCHAR slash
ENCODING 47
SWIDTH 443 0
DWIDTH 13 0
BBX 18 27 -4 -7
BITMAP
0003C0
000380
000780
000700
000F00
000E00
001C00
001C00
003800
007800
007000
00F000
00E000
01E000
01C000
03C000
038000
078000
070000
0E0000
0E0000
1C0000
3C0000
380000
780000
700000
F00000
ENDCHAR
STARTCHAR zero
ENCODING 48
SWIDTH 651 0
DWIDTH 20 0
BBX 18 20 1 0
BITMAP
03F800
0FFE00
1FFF00
3FFF80
7F1F80
7E1FC0
7E0FC0
FC0FC0
FC0FC0
FC0FC0
FC0FC0
FC0FC0
FC0FC0
FC1F80
FE1F80
7E3F80
7FFF00
3FFE00
1FFC00
07F000
ENDCHAR
STARTCHAR one
ENCODING 49
SWIDTH 651 0
DWIDTH 20 0
BBX 9 20 5 0
BITMAP
3F80
7F80
FF80
FF80
FF80
FF80
BF80
3F80
3F80
3F80
3F80
3F80
3F80
3F80
3F80
3F80
3F80
3F80
3F80
3F80
ENDCHAR
STARTCHAR two
ENCODING 50
SWIDTH 651 0
DWIDTH 20 0
BBX 17 20 1 0
BITMAP
3FF800
3FFE00
7FFF00
7FFF80
007F80
003F80
003F80
007F00
00FF00
01FE00
03FC00
07F800
0FF000
1FE000
3FC000
7F8000
FFFF00
FFFF00
FFFF00
FFFF00
ENDCHAR
STARTCHAR three
ENCODING 51
SWIDTH 651 0
DWIDTH 20 0
BBX 16 20 2 0
BITMAP
3FF0
3FFE
7FFE
7FFF
00FF
007F
00FF
1FFE
1FFC
1FF8
1FFE
00FE
007F
007F
007F
00FF
FFFE
FFFE
FFF8
FFE0
ENDCHAR
STARTCHAR four
ENCODING 52
SWIDTH 651 0
DWIDTH 20 0
BBX 18 20 1 0
BITMAP
01FE00
01FE00
03FE00
07FE00
0FBE00
0FBE00
1F3E00
3E3E00
7C3E00
F83C00
F07C00
FFFFC0
FFFFC0
FFFFC0
FFFFC0
00FC00
00FC00
00FC00
00FC00
00FC00
ENDCHAR
STARTCHAR five
ENCODING 53
SWIDTH 651 0
DWIDTH 20 0
BBX 16 20 2 0
BITMAP
1FFF
1FFF
3FFF
3FFF
3F00
3F00
3E00
3FF0
7FFC
7FFE
7FFF
00FF
007F
007F
007F
01FE
FFFE
FFFC
FFF8
FFC0
ENDCHAR
STARTCHAR six
ENCODING 54
SWIDTH 651 0
DWIDTH 20 0
BBX 17 20 1 0
BITMAP
03FC00
07F800
0FF000
0FE000
1FC000
3F8000
3F8000
7F7C00
7FFE00
7EFF00
FFFF80
FC3F80
FC1F80
FC1F80
FC1F80
FE3F00
7FFF00
7FFE00
1FFC00
07F000
ENDCHAR
STARTCHAR seven
ENCODING 55
SWIDTH 651 0
DWIDTH 20 0
BBX 16 20 2 0
BITMAP
FFFF
FFFF
FFFF
FFFF
00FF
01FE
01FE
03FC
03F8
07F8
07F0
0FF0
0FE0
1FC0
1FC0
3F80
3F80
7F00
7F00
FE00
ENDCHAR
STARTCHAR eight
ENCODING 56
SWIDTH 651 0
DWIDTH 20 0
BBX 18 20 1 0
BITMAP
03F800
1FFE00
3FFF00
7FFF80
7E1F80
7C0F80
7C0F80
7E1F00
3FFF00
1FFC00
1FFF00
7FFF80
7E1FC0
FC0FC0
FC0FC0
FE1FC0
FFFF80
7FFF80
3FFE00
07F800
ENDCHAR
STARTCHAR nine
ENCODING 57
SWIDTH 651 0
DWIDTH 20 0
BBX 17 20 1 0
BITMAP
07F800
1FFE00
3FFF00
7FFF00
7E3F80
FC1F80
FC1F80
FC1F80
FE1F80
FFBF80
7F3F00
3E7F00
1C7E00
00FE00
01FC00
01FC00
03F800
07F800
0FF000
1FE000
ENDCHAR
STARTCHAR colon
ENCODING 58
SWIDTH 294 0
DWIDTH 9 0
BBX 6 15 1 0
BITMAP
FC
FC
FC
FC
FC
00
00
00
00
00
FC
FC
FC
FC
FC
ENDCHAR
STARTCHAR semicolon
ENCODING 59
SWIDTH 294 0
DWIDTH 9 0
BBX 9 18 -1 -3
BITMAP
1F80
1F80
1F80
1F80
1F80
0000
0000
0000
0000
0000
0000
1F80
3F00
3E00
7C00
7C00
7800
F000
ENDCHAR
STARTCHAR less
ENCODING 60
SWIDTH 497 0
DWIDTH 15 0
BBX 13 19 1 1
BITMAP
0008
0038
00F8
01F8
07F8
1FF8
7FE0
FF80
FF00
FC00
FF00
FF80
7FE0
1FF8
07F8
01F8
00F8
0038
0008
ENDCHAR
STARTCHAR equal
ENCODING 61
SWIDTH 651 0
DWIDTH 20 0
BBX 18 10 1 5
BITMAP
FFFFC0
FFFFC0
FFFFC0
FFFFC0
000000
000000
FFFFC0
FFFFC0
FFFFC0
FFFFC0
ENDCHAR
STARTCHAR greater
ENCODING 62
SWIDTH 497 0
DWIDTH 15 0
BBX 13 19 1 1
BITMAP
8000
E000
F000
FC00
FF00
FFC0
3FF0
0FF8
07F8
01F8
07F8
0FF8
3FF0
FFC0
FF00
FC00
F800
E000
8000
ENDCHAR
STARTCHAR question
ENCODING 63
SWIDTH 521 0
DWIDTH 16 0
BBX 15 20 1 0
BITMAP
7FE0
7FF8
FFFC
FFFE
01FE
00FE
00FE
01FC
03F8
07F0
07E0
0FC0
0F80
0F80
0000
1F80
1F80
1F80
1F80
1F80
ENDCHAR
STARTCHAR at
ENCODING 64
SWIDTH 871 0
DWIDTH 26 0
BBX 24 20 1 0
BITMAP
007FC0
03FFF0
0FFFFC
1F807E
3E001E
3C3FCF
78FF87
71FF87
E1E387
E3C70F
E3C70E
E3CF3E
E3FFFC
F1FFF8
70F3E0
780000
3E0080
3FFF80
0FFF80
01FC00
ENDCHAR
STARTCHAR A
ENCODING 65
SWIDTH 813 0
DWIDTH 24 0
BBX 26 20 -1 0
BITMAP
001FE000
003FE000
003FF000
007FF000
007FF000
00FDF800
01FDF800
01F9F800
03F8FC00
03F0FC00
07FFFC00
07FFFE00
0FFFFE00
0FFFFF00
1FC07F00
1F803F00
3F803F80
7F003F80
7F001F80
FF001FC0
ENDCHAR
STARTCHAR B
ENCODING 66
SWIDTH 709 0
DWIDTH 21 0
BBX 18 20 2 0
BITMAP
7FFF00
7FFF80
7FFFC0
7FFFC0
7E1FC0
7E0FC0
7E0FC0
7E1F80
7FFF80
7FFE00
7FFF00
7FFF80
7C1FC0
7C0FC0
7C0FC0
7C1FC0
FFFFC0
FFFF80
FFFF00
FFFC00
ENDCHAR
STARTCHAR C
ENCODING 67
SWIDTH 670 0
DWIDTH 20 0
BBX 18 20 1 0
BITMAP
00FFC0
03FFC0
0FFFC0
1FFFC0
3FC000
7F0000
7E0000
FE0000
FC0000
FC0000
FC0000
FC0000
FC0000
FE0000
7F0000
7F8000
3FFFC0
1FFFC0
07FF80
01FF80
ENDCHAR
STARTCHAR D
ENCODING 68
SWIDTH 773 0
DWIDTH 23 0
BBX 20 20 2 0
BITMAP
7FFE00
7FFF80
7FFFC0
7FFFE0
7E0FE0
7E07E0
7E07F0
7E03F0
7E03F0
7E03F0
7E03F0
7E03F0
7C07F0
7C07E0
7C0FE0
FC1FC0
FFFFC0
FFFF80
FFFF00
FFF800
ENDCHAR
STARTCHAR E
ENCODING 69
SWIDTH 659 0
DWIDTH 20 0
BBX 18 20 1 0
BITMAP
7FFFC0
7FFFC0
7FFFC0
7FFFC0
7E0000
7E0000
7E0000
7E0000
7FFF00
7FFF00
7FFF00
7FFF00
7C0000
7C0000
7C0000
FC0000
FFFF80
FFFF80
FFFF80
FFFF80
ENDCHAR
STARTCHAR F
ENCODING 70
SWIDTH 613 0
DWIDTH 18 0
BBX 16 20 2 0
BITMAP
7FFF
7FFF
7FFF
7FFF
7E00
7E00
7E00
7E00
7FFC
7FFC
7FFC
7FFC
7C00
7C00
7C00
7C00
FC00
FC00
FC00
FC00
ENDCHAR
STARTCHAR G
ENCODING 71
SWIDTH 780 0
DWIDTH 23 0
BBX 21 20 1 0
BITMAP
00FFF0
03FFF0
0FFFF0
1FFFF0
3FC000
7F8000
7F0000
FE0000
FC0FF8
FC0FF8
FC0FF8
FC0FF8
FC03F0
FE03F0
7E03F0
7F83F0
3FFFF0
1FFFF0
0FFFF0
01FF80
ENDCHAR
STARTCHAR H
ENCODING 72
SWIDTH 818 0
DWIDTH 25 0
BBX 21 20 2 0
BITMAP
7E01F8
7E01F8
7E01F8
7E01F8
7E01F8
7E01F8
7E01F0
7FFFF0
7FFFF0
7FFFF0
7FFFF0
7C03F0
7C03F0
FC03F0
FC03F0
FC03F0
FC03F0
FC03F0
FC03F0
FC03F0
ENDCHAR
STARTCHAR I
ENCODING 73
SWIDTH 341 0
DWIDTH 10 0
BBX 7 20 2 0
BITMAP
7E
7E
7E
7E
7E
7E
7E
7C
7C
7C
7C
7C
7C
FC
FC
FC
FC
FC
FC
FC
ENDCHAR
STARTCHAR J
ENCODING 74
SWIDTH 516 0
DWIDTH 15 0
BBX 15 20 -1 0
BITMAP
007E
007E
007E
007E
007E
007C
007C
007C
00FC
00FC
00FC
00FC
00FC
00FC
01FC
03FC
FFFC
FFF8
FFF0
FFC0
ENDCHAR
STARTCHAR K
ENCODING 75
SWIDTH 765 0
DWIDTH 23 0
BBX 22 20 1 0
BITMAP
7E03FC
7E07F8
7E0FF0
7E0FE0
7E1FC0
7E3F80
7E7F80
7E7F00
7EFE00
7DFC00
7CFE00
7CFF00
7C7F00
FC3F80
FC3FC0
FC1FE0
FC0FE0
FC0FF0
FC07F8
FC07FC
ENDCHAR
STARTCHAR L
ENCODING 76
SWIDTH 585 0
DWIDTH 18 0
BBX 17 20 1 0
BITMAP
7E0000
7E0000
7E0000
7E0000
7E0000
7E0000
7E0000
7E0000
7E0000
7C0000
7C0000
7C0000
7C0000
FC0000
FC0000
FC0000
FFFF80
FFFF80
FFFF80
FFFF80
ENDCHAR
STARTCHAR M
ENCODING 77
SWIDTH 920 0
DWIDTH 28 0
BBX 25 20 1 0
BITMAP
7FC07F80
7FC07F80
7FC0FF80
7FE0FF80
7FE1FF80
7FE1FF00
7BE1EF00
7BF3EF00
7BF3FF00
7BF7DF00
79F7DF00
F9F7DF00
F9FF9F00
F9FF9F00
F8FF9F00
F8FF1F00
F8FF1F00
F8FF1F00
F87E1F00
F87E1F00
ENDCHAR
STARTCHAR N
ENCODING 78
SWIDTH 820 0
DWIDTH 25 0
BBX 22 20 1 0
BITMAP
7F80FC
7F80FC
7FC0FC
7FC0FC
7FE0FC
7FE0FC
7FF0FC
7FF0FC
7FF8FC
7CF8F8
7CFCF8
7C7DF8
FC7FF8
FC3FF8
FC1FF8
FC1FF8
FC0FF8
FC0FF8
FC07F8
FC07F8
ENDCHAR
STARTCHAR O
ENCODING 79
SWIDTH 866 0
DWIDTH 26 0
BBX 24 20 1 0
BITMAP
00FF80
03FFE0
0FFFF8
1FFFFC
3FC1FE
7F00FE
7E007F
FE003F
FC003F
FC003F
FC003F
FC003F
FC007F
FE007E
7F00FE
7F83FC
3FFFF8
1FFFF0
07FFE0
00FF00
ENDCHAR
STARTCHAR P
ENCODING 80
SWIDTH 638 0
DWIDTH 19 0
BBX 17 20 2 0
BITMAP
7FFC00
7FFE00
7FFF00
7FFF80
7E3F80
7E1F80
7E1F80
7E1F80
7E3F80
7DFF00
7DFF00
7CFE00
7CF800
7C0000
7C0000
FC0000
FC0000
FC0000
FC0000
FC0000
ENDCHAR
STARTCHAR Q
ENCODING 81
SWIDTH 882 0
DWIDTH 26 0
BBX 25 20 1 0
BITMAP
00FF8000
03FFE000
0FFFF800
1FFFFC00
3FC1FC00
7F00FE00
7E007E00
FE003F00
FC003F00
FC003F00
FC003F00
FC003F00
FC007E00
FE007E00
7F00FC00
7F83F980
3FFFFF80
1FFFFF00
07FFFF00
00FFF800
ENDCHAR
STARTCHAR R
ENCODING 82
SWIDTH 700 0
DWIDTH 21 0
BBX 19 20 1 0
BITMAP
7FFF00
7FFF80
7FFFC0
7FFFE0
7E0FE0
7E07E0
7E07E0
7E07E0
7E0FC0
7CFF80
7C7F00
7C7E00
7C7E00
7C3E00
7C3F00
7C3F00
FC1F80
FC1F80
FC1F80
FC1FC0
ENDCHAR
STARTCHAR S
ENCODING 83
SWIDTH 552 0
DWIDTH 17 0
BBX 15 20 1 0
BITMAP
07FE
1FFE
3FFE
7FFE
7F00
7E00
7E00
3F00
3FC0
1FE0
07F8
03FC
00FC
007E
007E
00FE
FFFC
FFFC
FFF8
FFE0
ENDCHAR
STARTCHAR T
ENCODING 84
SWIDTH 634 0
DWIDTH 19 0
BBX 19 20 1 0
BITMAP
FFFFE0
FFFFE0
FFFFE0
FFFFE0
03F000
03F000
03F000
03F000
03F000
03E000
03E000
03E000
03E000
03E000
07E000
07E000
07E000
07E000
07E000
07E000
ENDCHAR
STARTCHAR U
ENCODING 85
SWIDTH 777 0
DWIDTH 23 0
BBX 20 20 2 0
BITMAP
7E03F0
7E03F0
7E03F0
7E03F0
7E03F0
7E03F0
7C07E0
FC07E0
FC07E0
FC07E0
FC07E0
FC07E0
FC07E0
FC07E0
FE0FE0
FF1FE0
7FFFC0
7FFF80
1FFF00
07F800
ENDCHAR
STARTCHAR V
ENCODING 86
SWIDTH 753 0
DWIDTH 23 0
BBX 24 20 0 0
BITMAP
FC007F
7E007E
7E00FE
7E00FC
3E01FC
3F01F8
3F03F8
1F03F0
1F87F0
1F87E0
0F87E0
0F8FC0
0FCF80
07DF80
07DF00
07FF00
03FE00
03FE00
03FC00
03FC00
ENDCHAR
STARTCHAR W
ENCODING 87
SWIDTH 1086 0
DWIDTH 33 0
BBX 31 20 1 0
BITMAP
FC0FE07E
FC0FE0FC
7C1FE0FC
7C1FE0FC
7E1FE1F8
7E1FF1F8
7E3FF1F8
3E3FF1F0
3E3DF3F0
3F3DF3F0
3F7DF7E0
1F7DF7E0
1F79F7E0
1F79F7C0
1FF8FFC0
1FF8FFC0
0FF0FF80
0FF0FF80
0FF0FF80
0FF0FF00
ENDCHAR
STARTCHAR X
ENCODING 88
SWIDTH 685 0
DWIDTH 21 0
BBX 22 20 -1 0
BITMAP
3F81FC
1FC3F8
0FC3F0
0FE7E0
07F7E0
03FFC0
03FF80
01FF80
01FF00
00FE00
01FE00
03FF00
03FF80
07FF80
0FDFC0
1FCFC0
1F8FE0
3F07F0
7F07F0
FE03F8
ENDCHAR
STARTCHAR Y
ENCODING 89
SWIDTH 645 0
DWIDTH 19 0
BBX 21 20 0 0
BITMAP
FE03F8
7E07F0
7F07E0
3F0FE0
3F8FC0
1F9FC0
0FDF80
0FFF00
07FF00
03FE00
03FC00
01FC00
01F800
01F800
01F800
01F800
01F000
03F000
03F000
03F000
ENDCHAR
STARTCHAR Z
ENCODING 90
SWIDTH 666 0
DWIDTH 20 0
BBX 19 20 1 0
BITMAP
7FFFE0
7FFFE0
7FFFE0
7FFFE0
001FE0
001FC0
003F80
007F00
00FE00
01FC00
03F800
07F000
1FE000
3F8000
7F0000
FE0000
FFFFC0
FFFFC0
FFFFC0
FFFFC0
ENDCHAR
STARTCHAR bracketleft
ENCODING 91
SWIDTH 372 0
DWIDTH 11 0
BBX 9 27 1 -7
BITMAP
7F80
7F80
7F80
7C00
7C00
7C00
7C00
7C00
7C00
7C00
7C00
7C00
7C00
7C00
7800
7800
7800
7800
F800
F800
F800
F800
F800
F800
FF00
FF00
FF00
ENDCHAR
STARTCHAR backslash
ENCODING 92
SWIDTH 433 0
DWIDTH 13 0
BBX 15 27 0 -7
BITMAP
E000
7000
7000
7800
3800
3C00
1C00
1C00
0E00
0E00
0F00
0700
0780
0380
0380
01C0
01C0
01E0
00E0
00F0
0070
0070
0038
0038
003C
001C
001E
ENDCHAR
STARTCHAR bracketright
ENCODING 93
SWIDTH 372 0
DWIDTH 11 0
BBX 9 27 0 -7
BITMAP
7F80
7F80
7F80
0F80
0F80
0F80
0F80
0F80
0F80
0F00
0F00
0F00
0F00
1F00
1F00
1F00
1F00
1F00
1F00
1F00
1F00
1F00
1F00
1F00
FF00
FF00
FF00
ENDCHAR
STARTCHAR asciicircum
ENCODING 94
SWIDTH 498 0
DWIDTH 15 0
BBX 15 10 0 10
BITMAP
0FE0
0FE0
1FF0
1FF0
3EF8
3EF8
3C78
7C7C
7C3C
F83E
ENDCHAR
STARTCHAR underscore
ENCODING 95
SWIDTH 497 0
DWIDTH 15 0
BBX 15 3 0 -5
BITMAP
FFFE
FFFE
FFFE
ENDCHAR
STARTCHAR grave
ENCODING 96
SWIDTH 500 0
DWIDTH 15 0
BBX 7 3 3 17
BITMAP
FC
7E
3E
ENDCHAR
STARTCHAR a
ENCODING 97
SWIDTH 605 0
DWIDTH 18 0
BBX 15 15 1 0
BITMAP
3FF8
3FFC
3FFE
007E
007E
01FE
1FFE
3FFE
7F7E
FC7E
F87E
F87E
FFFE
7F7E
3F7E
ENDCHAR
STARTCHAR b
ENCODING 98
SWIDTH 654 0
DWIDTH 20 0
BBX 18 20 1 0
BITMAP
7E0000
7E0000
7E0000
7E0000
7E0000
7FFC00
7FFF00
7FFF80
7FFF80
7C1FC0
7C0FC0
7C0FC0
FC0FC0
FC0FC0
FE1FC0
FF1F80
FFFF80
FFFF00
FDFE00
FCFC00
ENDCHAR
STARTCHAR c
ENCODING 99
SWIDTH 505 0
DWIDTH 15 0
BBX 13 15 1 0
BITMAP
07F8
1FF8
3FF8
7FF8
7F00
FE00
FC00
FC00
FC00
FC00
FE00
7FF8
7FF8
3FF0
0FF0
ENDCHAR
STARTCHAR d
ENCODING 100
SWIDTH 659 0
DWIDTH 20 0
BBX 19 20 1 0
BITMAP
0007E0
0007E0
0007E0
0007E0
0007E0
03FFE0
0FFFE0
3FFFC0
3FFFC0
7F0FC0
FE0FC0
FC0FC0
FC0FC0
FC0FC0
FC0FC0
FE1FC0
7FFFC0
7FFFC0
3FEFC0
0F8FC0
ENDCHAR
STARTCHAR e
ENCODING 101
SWIDTH 591 0
DWIDTH 18 0
BBX 16 15 1 0
BITMAP
07F0
1FFC
3FFE
7E3E
7E1F
FC1F
FFFF
FFFF
FC00
FC00
FE00
7FFE
7FFC
1FFC
0FF8
ENDCHAR
STARTCHAR f
ENCODING 102
SWIDTH 395 0
DWIDTH 12 0
BBX 12 21 1 0
BITMAP
0FF0
1FF0
3FF0
3FF0
3E00
3E00
FFE0
FFE0
FFE0
FFE0
3E00
3E00
3E00
7E00
7E00
7E00
7E00
7E00
7E00
7E00
7E00
ENDCHAR
STARTCHAR g
ENCODING 103
SWIDTH 659 0
DWIDTH 20 0
BBX 17 22 1 -7
BITMAP
03FE00
0FFF80
3FFF80
3FFF80
7F1F80
FE1F80
FC1F80
FC1F80
FC1F80
FC3F80
FE7F80
7FFF80
7FFF80
3FDF80
0F9F80
001F80
003F80
007F80
3FFF80
3FFF00
3FFE00
3FF800
ENDCHAR
STARTCHAR h
ENCODING 104
SWIDTH 680 0
DWIDTH 20 0
BBX 18 20 1 0
BITMAP
7E0000
7E0000
7E0000
7E0000
7E0000
7E7E00
7FFF80
7FFFC0
7FFFC0
7FFFC0
7F1FC0
7E0FC0
7E0FC0
FC0FC0
FC0FC0
FC0F80
FC1F80
FC1F80
FC1F80
FC1F80
ENDCHAR
STARTCHAR i
ENCODING 105
SWIDTH 312 0
DWIDTH 9 0
BBX 7 20 1 0
BITMAP
7E
7E
7E
00
00
7E
7E
7E
7E
7C
7C
7C
7C
7C
7C
7C
FC
FC
FC
FC
ENDCHAR
STARTCHAR j
ENCODING 106
SWIDTH 313 0
DWIDTH 9 0
BBX 12 27 -4 -7
BITMAP
03F0
03F0
03F0
0000
0000
03F0
03F0
03F0
03F0
03F0
03F0
03E0
03E0
03E0
03E0
07E0
07E0
07E0
07E0
07E0
07E0
07E0
0FE0
FFE0
FFC0
FFC0
FF00
ENDCHAR
STARTCHAR k
ENCODING 107
SWIDTH 623 0
DWIDTH 19 0
BBX 17 20 1 0
BITMAP
7E0000
7E0000
7E0000
7E0000
7E0000
7E1F80
7C3F00
7C3E00
7C7E00
7CFC00
7CF800
7DF000
7DF800
7CF800
FCFC00
FC7E00
FC3E00
FC3F00
FC3F00
FC1F80
ENDCHAR
STARTCHAR l
ENCODING 108
SWIDTH 309 0
DWIDTH 9 0
BBX 7 20 1 0
BITMAP
7E
7E
7E
7E
7E
7E
7E
7E
7C
7C
7C
7C
FC
FC
FC
FC
FC
FC
FC
FC
ENDCHAR
STARTCHAR m
ENCODING 109
SWIDTH 932 0
DWIDTH 28 0
BBX 26 15 1 0
BITMAP
7E7E1F00
7EFF3F80
7FFFFFC0
7FFFFFC0
7FFFFFC0
7F3F9FC0
7E1F8FC0
7E1F8FC0
7C1F0FC0
FC3F0F80
FC3F1F80
FC3F1F80
FC3F1F80
FC3F1F80
FC3F1F80
ENDCHAR
STARTCHAR n
ENCODING 110
SWIDTH 679 0
DWIDTH 20 0
BBX 17 15 1 0
BITMAP
7E7E00
7FFF00
7FFF80
7FFF80
7FFF80
7F3F80
7E1F80
7E1F80
7E1F80
7C1F80
FC1F80
FC1F80
FC1F80
FC1F80
FC1F80
ENDCHAR
STARTCHAR o
ENCODING 111
SWIDTH 648 0
DWIDTH 19 0
BBX 17 15 1 0
BITMAP
07F000
1FFC00
3FFE00
7FFF00
7E3F80
FC1F80
FC1F80
FC1F80
FC1F80
FC1F80
7E3F00
7FFF00
3FFE00
1FFC00
07F000
ENDCHAR
STARTCHAR p
ENCODING 112
SWIDTH 656 0
DWIDTH 20 0
BBX 18 22 1 -7
BITMAP
0FF800
7FFE00
7FFF00
7FFF80
7E1F80
7E0FC0
7E0FC0
7E0FC0
7E0FC0
7E1FC0
7F1FC0
7FFF80
7FFF80
7DFF00
7C7C00
7C0000
FC0000
FC0000
FC0000
FC0000
FC0000
FC0000
ENDCHAR
STARTCHAR q
ENCODING 113
SWIDTH 657 0
DWIDTH 20 0
BBX 18 22 1 -7
BITMAP
03FF00
0FFFC0
3FFFC0
7FFFC0
7F0FC0
FE0FC0
FC0FC0
FC0FC0
FC1F80
FC1F80
FE3F80
7FFF80
7FFF80
3FFF80
0F9F80
001F80
001F80
001F80
001F80
001F80
001F80
001F80
ENDCHAR
STARTCHAR r
ENCODING 114
SWIDTH 429 0
DWIDTH 13 0
BBX 12 15 1 0
BITMAP
7E70
7FF0
7FF0
7FF0
7FF0
7F00
7E00
7C00
7C00
7C00
7C00
FC00
FC00
FC00
FC00
ENDCHAR
STARTCHAR s
ENCODING 115
SWIDTH 482 0
DWIDTH 14 0
BBX 12 15 1 0
BITMAP
0FF0
3FF0
7FF0
7FF0
7E00
7F00
3F80
1FC0
0FE0
07F0
03F0
FFF0
FFF0
FFE0
FF80
ENDCHAR
STARTCHAR t
ENCODING 116
SWIDTH 425 0
DWIDTH 13 0
BBX 12 19 1 0
BITMAP
0380
1F80
1F80
1F80
FFF0
FFF0
FFF0
FFF0
3F80
3F00
3F00
3F00
3F00
3F00
3F80
3FF0
3FF0
1FE0
0FE0
ENDCHAR
STARTCHAR u
ENCODING 117
SWIDTH 656 0
DWIDTH 20 0
BBX 18 15 1 0
BITMAP
7E0FC0
7E0FC0
7E0FC0
7E0FC0
7C0FC0
7C0F80
7C0F80
FC1F80
FC1F80
FE3F80
FFFF80
FFFF80
FFFF80
7FFF80
1F9F80
ENDCHAR
STARTCHAR v
ENCODING 118
SWIDTH 589 0
DWIDTH 18 0
BBX 18 15 0 0
BITMAP
FC0FC0
7C1F80
7E1F80
7E1F00
3E3F00
3E3E00
3F3E00
1F7E00
1F7C00
1F7C00
0FF800
0FF800
0FF000
07F000
07F000
ENDCHAR
STARTCHAR w
ENCODING 119
SWIDTH 907 0
DWIDTH 27 0
BBX 28 15 0 0
BITMAP
FC0F83F0
7C1F83E0
7E1FC3E0
7E1FC7E0
3E3FC7C0
3E3FE7C0
3F7DEF80
1F7DEF80
1F7DEF00
1FF9FF00
0FF9FF00
0FF0FE00
0FF0FE00
07F0FC00
07E0FC00
ENDCHAR
STARTCHAR x
ENCODING 120
SWIDTH 635 0
DWIDTH 19 0
BBX 19 15 0 0
BITMAP
7F0FE0
3F8FC0
1F9F80
1FFF00
0FFF00
07FE00
07FC00
03FC00
07FE00
0FFE00
1FBF00
1FBF80
3F1F80
7F1FC0
FE0FE0
ENDCHAR
STARTCHAR y
ENCODING 121
SWIDTH 591 0
DWIDTH 18 0
BBX 19 22 0 -7
BITMAP
7E07E0
3E07C0
3F0FC0
3F0F80
1F1F80
1F1F80
1F9F00
0FBF00
0FBE00
0FBE00
07FC00
07FC00
07F800
03F800
03F800
03F000
03F000
07E000
FFE000
FFC000
7F8000
7F0000
ENDCHAR
STARTCHAR z
ENCODING 122
SWIDTH 523 0
DWIDTH 16 0
BBX 14 15 1 0
BITMAP
7FFC
7FFC
7FFC
7FFC
01FC
03F8
07F0
1FE0
3FC0
7F80
FF00
FFFC
FFFC
FFFC
FFFC
ENDCHAR
STARTCHAR braceleft
ENCODING 123
SWIDTH 432 0
DWIDTH 13 0
BBX 10 27 2 -7
BITMAP
0FC0
3FC0
7FC0
7E00
7C00
7C00
7C00
7C00
7C00
7C00
7C00
7C00
7C00
F800
F800
7C00
7C00
7C00
7C00
7C00
7C00
7C00
7C00
7E00
7F80
3F80
0F80
ENDCHAR
STARTCHAR bar
ENCODING 124
SWIDTH 497 0
DWIDTH 15 0
BBX 5 25 5 -5
BITMAP
F8
F8
F8
F8
F8
F8
F8
F8
F8
F8
F8
F8
F8
F8
F8
F8
F8
F8
F8
F8
F8
F8
F8
F8
F8
ENDCHAR
STARTCHAR braceright
ENCODING 125
SWIDTH 432 0
DWIDTH 13 0
BBX 10 27 1 -7
BITMAP
7C00
7F00
7F80
1F80
0F80
0F80
0F80
0F80
0F80
0F80
0F80
0F80
0F80
07C0
07C0
0F80
0F80
0F80
0F80
0F80
0F80
0F80
0F80
1F80
FF80
FF00
FC00
ENDCHAR
STARTCHAR asciitilde
ENCODING 126
SWIDTH 664 0
DWIDTH 20 0
BBX 15 7 3 6
BITMAP
1E08
3F9C
7FFE
FFFE
FFFC
73F8
20F0
ENDCHAR
STARTCHAR nbspace
ENCODING 160
SWIDTH 250 0
DWIDTH 8 0
BBX 1 1 0 0
BITMAP
00
ENDCHAR
STARTCHAR exclamdown
ENCODING 161
SWIDTH 339 0
DWIDTH 10 0
BBX 7 20 1 -5
BITMAP
7E
7E
7E
7E
7E
00
00
7C
7C
7C
7C
7C
7C
7C
FC
FC
FC
FC
FC
FC
ENDCHAR
STARTCHAR cent
ENCODING 162
SWIDTH 651 0
DWIDTH 20 0
BBX 14 22 3 -1
BITMAP
01E0
01E0
01E0
07FC
1FFC
3FFC
7FFC
7F04
FE00
FC00
FC00
FC00
FE00
FF04
7FFC
7FFC
3FF8
1FF8
0FF8
03C0
03C0
03C0
ENDCHAR
STARTCHAR sterling
ENCODING 163
SWIDTH 651 0
DWIDTH 20 0
BBX 17 20 2 0
BITMAP
03FE00
0FFE00
1FFE00
3FFE00
3F8000
3F0000
3F0000
3F0000
7FFC00
7FFC00
FFF800
FFF800
0F8000
0F8000
1FC080
3FFF80
3FFF00
3FFF00
7FFF00
407E00
ENDCHAR
STARTCHAR currency
ENCODING 164
SWIDTH 651 0
DWIDTH 20 0
BBX 17 16 2 3
BITMAP
100200
300700
FBFF80
7FFF00
3FFE00
3FFE00
7C1F00
780F00
780F00
780F00
7C1F00
3FFE00
7FFE00
FFFF80
7FFE00
200400
ENDCHAR
STARTCHAR yen
ENCODING 165
SWIDTH 651 0
DWIDTH 20 0
BBX 20 20 0 0
BITMAP
FC03F0
7E07E0
7E07E0
3F0FC0
1F1F80
1F9F80
7FBFE0
7FFFE0
7FFFE0
03FC00
01F800
7FFFC0
7FFFC0
7FFFC0
01F000
03F000
03F000
03F000
03F000
03F000
ENDCHAR
STARTCHAR brokenbar
ENCODING 166
SWIDTH 497 0
DWIDTH 15 0
BBX 5 25 5 -5
BITMAP
F8
F8
F8
F8
F8
F8
F8
F8
F8
F8
F8
00
00
00
00
F8
F8
F8
F8
F8
F8
F8
F8
F8
F8
ENDCHAR
STARTCHAR section
ENCODING 167
SWIDTH 601 0
DWIDTH 18 0
BBX 16 27 1 -7
BITMAP
07FE
0FFE
1FFE
3FFE
3F80
3F00
3F80
1FC0
1FF0
3FFC
7FFE
F8FF
F83F
F83F
FE1F
7F1F
7FFE
3FFC
0FF8
03F8
01FC
00FC
00FC
7FFC
7FF8
7FF0
7FE0
ENDCHAR
STARTCHAR dieresis
ENCODING 168
SWIDTH 500 0
DWIDTH 15 0
BBX 10 3 3 17
BITMAP
F3C0
F3C0
F3C0
ENDCHAR
STARTCHAR copyright
ENCODING 169
SWIDTH 828 0
DWIDTH 25 0
BBX 23 20 1 0
BITMAP
00FF00
07FFE0
0F00F0
3C0038
307E1C
71FE0C
63FE0E
C7C006
C78006
C78006
C78006
C7C006
C3FE06
E1FE0C
607E0C
700018
380038
1E01F0
07FFC0
01FE00
ENDCHAR
STARTCHAR ordfeminine
ENCODING 170
SWIDTH 385 0
DWIDTH 12 0
BBX 10 9 1 8
BITMAP
7F80
7FC0
03C0
0FC0
7FC0
FBC0
F3C0
FFC0
7BC0
ENDCHAR
STARTCHAR guillemotleft
ENCODING 171
SWIDTH 524 0
DWIDTH 16 0
BBX 12 10 1 2
BITMAP
3CF0
3CF0
79E0
79E0
FBE0
FBE0
79E0
7DF0
3CF0
3CF0
ENDCHAR
STARTCHAR logicalnot
ENCODING 172
SWIDTH 497 0
DWIDTH 15 0
BBX 13 9 1 0
BITMAP
FFF8
FFF8
FFF8
FFF8
FFF8
00F8
00F8
00F8
00F8
ENDCHAR
STARTCHAR sfthyphen
ENCODING 173
SWIDTH 267 0
DWIDTH 8 0
BBX 8 4 0 6
BITMAP
FF
FF
FF
FF
ENDCHAR
STARTCHAR registered
ENCODING 174
SWIDTH 828 0
DWIDTH 25 0
BBX 23 20 1 0
BITMAP
00FF00
07FFE0
0F00F0
3C0038
30001C
73FE0C
63FF8E
C3FF86
C3C786
C3C786
C3FF06
C3DE06
C3DE06
E3CF0C
63CF8C
700018
380038
1E01F0
07FFC0
01FE00
ENDCHAR
STARTCHAR overscore
ENCODING 175
SWIDTH 497 0
DWIDTH 15 0
BBX 15 3 0 20
BITMAP
FFFE
FFFE
FFFE
ENDCHAR
STARTCHAR degree
ENCODING 176
SWIDTH 314 0
DWIDTH 9 0
BBX 7 7 2 13
BITMAP
38
7C
C6
C6
C6
7C
38
ENDCHAR
STARTCHAR plusminus
ENCODING 177
SWIDTH 651 0
DWIDTH 20 0
BBX 17 19 1 0
BITMAP
01E000
01E000
01E000
01E000
01E000
7FFF80
7FFF80
7FFF80
7FFF80
01E000
01E000
01E000
01E000
01E000
000000
FFFF80
FFFF80
FFFF80
FFFF80
ENDCHAR
STARTCHAR twosuperior
ENCODING 178
SWIDTH 410 0
DWIDTH 12 0
BBX 10 12 1 8
BITMAP
7F00
7FC0
7FC0
03C0
0380
0700
1E00
3C00
7800
FFC0
FFC0
FFC0
ENDCHAR
STARTCHAR threesuperior
ENCODING 179
SWIDTH 410 0
DWIDTH 12 0
BBX 10 12 1 8
BITMAP
3F00
3FC0
7FC0
03C0
03C0
3F80
3F00
3F80
03C0
FFC0
FF80
FF00
ENDCHAR
STARTCHAR acute
ENCODING 180
SWIDTH 500 0
DWIDTH 15 0
BBX 7 3 5 17
BITMAP
7E
FC
F8
ENDCHAR
STARTCHAR mu
ENCODING 181
SWIDTH 651 0
DWIDTH 20 0
BBX 18 22 1 -7
BITMAP
7E0FC0
7E0FC0
7E0FC0
7E0FC0
7E0FC0
7E0F80
7C0F80
7C1F80
7E1F80
7E3F80
7FFF80
7FFF80
7FFF80
FFFF80
FFDF80
FC0000
FC0000
FC0000
FC0000
FC0000
FC0000
FC0000
ENDCHAR
STARTCHAR paragraph
ENCODING 182
SWIDTH 651 0
DWIDTH 20 0
BBX 19 27 1 -7
BITMAP
1FFFE0
3FFFE0
7FFFE0
FFE700
FFE700
FFE700
FFE700
FFE700
7FE700
7FE700
3FE700
0FE700
00E700
00E700
00C700
01CE00
01CE00
01CE00
01CE00
01CE00
01CE00
01CE00
01CE00
01CE00
01CE00
01CE00
01CE00
ENDCHAR
STARTCHAR middot
ENCODING 183
SWIDTH 207 0
DWIDTH 6 0
BBX 6 6 0 7
BITMAP
FC
FC
FC
FC
FC
FC
ENDCHAR
STARTCHAR cedilla
ENCODING 184
SWIDTH 500 0
DWIDTH 15 0
BBX 8 4 3 -5
BITMAP
1F
3E
7E
FC
ENDCHAR
STARTCHAR onesuperior
ENCODING 185
SWIDTH 410 0
DWIDTH 12 0
BBX 5 12 4 8
BITMAP
78
F8
F8
F8
78
78
78
78
78
78
78
78
ENDCHAR
STARTCHAR ordmasculine
ENCODING 186
SWIDTH 411 0
DWIDTH 12 0
BBX 11 9 1 8
BITMAP
1F00
7FC0
7FE0
F1E0
F1E0
F1E0
FFC0
7FC0
1F00
ENDCHAR
STARTCHAR guillemotright
ENCODING 187
SWIDTH 526 0
DWIDTH 16 0
BBX 12 10 3 2
BITMAP
F3C0
FBE0
79E0
79E0
7DF0
7DF0
79E0
FBE0
F3C0
F3C0
ENDCHAR
STARTCHAR onequarter
ENCODING 188
SWIDTH 928 0
DWIDTH 28 0
BBX 23 20 4 0
BITMAP
3C0780
7C0700
FC0F00
FC0E00
381E00
381C00
783800
783800
7870F8
7871F8
78E1F8
78E3B8
01C7B8
01CF38
038FFE
078FFE
070FFE
0F0078
0E0078
1E0078
ENDCHAR
STARTCHAR onehalf
ENCODING 189
SWIDTH 928 0
DWIDTH 28 0
BBX 23 20 4 0
BITMAP
3C0780
7C0700
FC0F00
FC0E00
381E00
381C00
783800
783800
7877F8
7877FE
78E7FE
78E01E
01C01C
01C078
0380F0
0783E0
070780
0F0FFE
0E0FFE
1E0FFE
ENDCHAR
STARTCHAR threequarters
ENCODING 190
SWIDTH 928 0
DWIDTH 28 0
BBX 26 20 1 0
BITMAP
3F00F000
3FC0E000
7FC1E000
03C1C000
03C3C000
3F838000
3F070000
3F870000
03CE1F00
FFCE3F00
FF9C3F00
FF1C7700
0038F700
0039E700
0071FFC0
00F1FFC0
00E1FFC0
01E00F00
01C00F00
03C00F00
ENDCHAR
STARTCHAR questiondown
ENCODING 191
SWIDTH 521 0
DWIDTH 16 0
BBX 15 20 0 -5
BITMAP
03F0
03F0
03F0
03F0
03F0
0000
03E0
03E0
07E0
0FC0
1FC0
3F80
7F00
FE00
FE00
FF00
FFFE
7FFE
3FFC
0FFC
ENDCHAR
STARTCHAR Agrave
ENCODING 192
SWIDTH 813 0
DWIDTH 24 0
BBX 26 25 -1 0
BITMAP
007E0000
003F0000
001F0000
00000000
00000000
001FE000
003FE000
003FF000
007FF000
007FF000
00FDF800
01FDF800
01F9F800
03F8FC00
03F0FC00
07FFFC00
07FFFE00
0FFFFE00
0FFFFF00
1FC07F00
1F803F00
3F803F80
7F003F80
7F001F80
FF001FC0
ENDCHAR
STARTCHAR Aacute
ENCODING 193
SWIDTH 813 0
DWIDTH 24 0
BBX 26 25 -1 0
BITMAP
000FC000
000F8000
001F8000
00000000
00000000
001FE000
003FE000
003FF000
007FF000
007FF000
00FDF800
01FDF800
01F9F800
03F8FC00
03F0FC00
07FFFC00
07FFFE00
0FFFFE00
0FFFFF00
1FC07F00
1F803F00
3F803F80
7F003F80
7F001F80
FF001FC0
ENDCHAR
STARTCHAR Acircumflex
ENCODING 194
SWIDTH 813 0
DWIDTH 24 0
BBX 26 25 -1 0
BITMAP
000FC000
001FE000
001DE000
00000000
00000000
001FE000
003FE000
003FF000
007FF000
007FF000
00FDF800
01FDF800
01F9F800
03F8FC00
03F0FC00
07FFFC00
07FFFE00
0FFFFE00
0FFFFF00
1FC07F00
1F803F00
3F803F80
7F003F80
7F001F80
FF001FC0
ENDCHAR
STARTCHAR Atilde
ENCODING 195
SWIDTH 813 0
DWIDTH 24 0
BBX 26 26 -1 0
BITMAP
001C6000
003FE000
003FE000
0033C000
00000000
00000000
001FE000
003FE000
003FF000
007FF000
007FF000
00FDF800
01FDF800
01F9F800
03F8FC00
03F0FC00
07FFFC00
07FFFE00
0FFFFE00
0FFFFF00
1FC07F00
1F803F00
3F803F80
7F003F80
7F001F80
FF001FC0
ENDCHAR
STARTCHAR Adieresis
ENCODING 196
SWIDTH 813 0
DWIDTH 24 0
BBX 26 25 -1 0
BITMAP
003CF000
003CF000
003CF000
00000000
00000000
001FE000
003FE000
003FF000
007FF000
007FF000
00FDF800
01FDF800
01F9F800
03F8FC00
03F0FC00
07FFFC00
07FFFE00
0FFFFE00
0FFFFF00
1FC07F00
1F803F00
3F803F80
7F003F80
7F001F80
FF001FC0
ENDCHAR
STARTCHAR Aring
ENCODING 197
SWIDTH 813 0
DWIDTH 24 0
BBX 26 27 -1 0
BITMAP
00078000
000FC000
000CC000
000CC000
000FC000
00078000
00000000
001FE000
003FE000
003FF000
007FF000
007DF000
00FDF800
01FCF800
01F8F800
03F0FC00
03F0FC00
07FFFC00
07FFFE00
0FFFFE00
0FFFFF00
1F803F00
1F803F00
3F001F80
7F001F80
7F001F80
FE001FC0
ENDCHAR
STARTCHAR AE
ENCODING 198
SWIDTH 962 0
DWIDTH 29 0
BBX 29 20 -1 0
BITMAP
003FFFF8
003FFFF8
007FFFF8
007FFFF8
00FFF000
00FDF000
01FDF000
01F9F000
03F9FFE0
03F1FFE0
07FFFFE0
07FFFFE0
0FFFF800
0FFFF800
1FC0FC00
3F80FC00
3F80FFF0
7F80FFF0
7F00FFF0
FF007FF0
ENDCHAR
STARTCHAR Ccedilla
ENCODING 199
SWIDTH 670 0
DWIDTH 20 0
BBX 18 25 1 -5
BITMAP
00FFC0
03FFC0
0FFFC0
1FFFC0
3FC000
7F0000
7E0000
FE0000
FC0000
FC0000
FC0000
FC0000
FC0000
FE0000
7F0000
7F8000
3FFFC0
1FFFC0
07FF80
01FF80
000000
007C00
00F800
01F800
03F000
ENDCHAR
STARTCHAR Egrave
ENCODING 200
SWIDTH 659 0
DWIDTH 20 0
BBX 18 25 1 0
BITMAP
07E000
03E000
03E000
000000
000000
7FFFC0
7FFFC0
7FFFC0
7FFFC0
7E0000
7E0000
7E0000
7E0000
7FFF00
7FFF00
7FFF00
7FFF00
7C0000
7C0000
7C0000
FC0000
FFFF80
FFFF80
FFFF80
FFFF80
ENDCHAR
STARTCHAR Eacute
ENCODING 201
SWIDTH 659 0
DWIDTH 20 0
BBX 18 25 1 0
BITMAP
00F800
01F800
01F000
000000
000000
7FFFC0
7FFFC0
7FFFC0
7FFFC0
7E0000
7E0000
7E0000
7E0000
7FFF00
7FFF00
7FFF00
7FFF00
7C0000
7C0000
7C0000
FC0000
FFFF80
FFFF80
FFFF80
FFFF80
ENDCHAR
STARTCHAR Ecircumflex
ENCODING 202
SWIDTH 659 0
DWIDTH 20 0
BBX 18 25 1 0
BITMAP
01FC00
01FC00
03DE00
000000
000000
7FFFC0
7FFFC0
7FFFC0
7FFFC0
7E0000
7E0000
7E0000
7E0000
7FFF00
7FFF00
7FFF00
7FFF00
7C0000
7C0000
7C0000
FC0000
FFFF80
FFFF80
FFFF80
FFFF80
ENDCHAR
STARTCHAR Edieresis
ENCODING 203
SWIDTH 659 0
DWIDTH 20 0
BBX 18 25 1 0
BITMAP
079E00
079E00
079E00
000000
000000
7FFFC0
7FFFC0
7FFFC0
7FFFC0
7E0000
7E0000
7E0000
7E0000
7FFF00
7FFF00
7FFF00
7FFF00
7C0000
7C0000
7C0000
FC0000
FFFF80
FFFF80
FFFF80
FFFF80
ENDCHAR
STARTCHAR Igrave
ENCODING 204
SWIDTH 341 0
DWIDTH 10 0
BBX 8 25 1 0
BITMAP
FC
7C
7E
00
00
3F
3F
3F
3F
3E
3E
3E
3E
3E
3E
3E
7E
7E
7E
7E
7E
7E
7E
7E
7E
ENDCHAR
STARTCHAR Iacute
ENCODING 205
SWIDTH 341 0
DWIDTH 10 0
BBX 8 25 2 0
BITMAP
3F
7E
7C
00
00
7E
7E
7E
7E
7E
7E
7E
7C
7C
7C
7C
7C
7C
FC
FC
FC
FC
FC
FC
FC
ENDCHAR
STARTCHAR Icircumflex
ENCODING 206
SWIDTH 341 0
DWIDTH 10 0
BBX 9 25 2 0
BITMAP
7F00
7F00
F780
0000
0000
7E00
7E00
7E00
7E00
7E00
7E00
7C00
7C00
7C00
7C00
7C00
7C00
FC00
FC00
FC00
FC00
FC00
FC00
FC00
FC00
ENDCHAR
STARTCHAR Idieresis
ENCODING 207
SWIDTH 341 0
DWIDTH 10 0
BBX 10 25 1 0
BITMAP
F3C0
F3C0
F3C0
0000
0000
3F00
3F00
3F00
3F00
3F00
3F00
3F00
3F00
3F00
3F00
3F00
3F00
3F00
3F00
3E00
3E00
3E00
7E00
7E00
7E00
ENDCHAR
STARTCHAR Eth
ENCODING 208
SWIDTH 773 0
DWIDTH 23 0
BBX 21 20 1 0
BITMAP
3FFF00
3FFFC0
3FFFE0
3FFFF0
3F07F0
3F03F0
3F01F8
3F01F8
FFE1F8
FFE1F8
FFE1F8
FFE1F8
7E03F8
7E03F0
7E07F0
7E0FE0
7FFFE0
7FFFC0
7FFF80
7FFC00
ENDCHAR
STARTCHAR Ntilde
ENCODING 209
SWIDTH 820 0
DWIDTH 25 0
BBX 22 26 1 0
BITMAP
007180
00FF80
00FF80
00CF00
000000
000000
7F80FC
7F80FC
7FC0FC
7FC0FC
7FE0FC
7FE0FC
7FF0FC
7FF0FC
7FF8FC
7CF8F8
7CFCF8
7C7DF8
FC7FF8
FC3FF8
FC1FF8
FC1FF8
FC0FF8
FC0FF8
FC07F8
FC07F8
ENDCHAR
STARTCHAR Ograve
ENCODING 210
SWIDTH 866 0
DWIDTH 26 0
BBX 24 25 1 0
BITMAP
00FC00
007C00
007C00
000000
000000
00FF80
03FFE0
0FFFF8
1FFFFC
3FC1FE
7F00FE
7E007F
FE003F
FC003F
FC003F
FC003F
FC003F
FC007F
FE007E
7F00FE
7F83FC
3FFFF8
1FFFF0
07FFE0
00FF00
ENDCHAR
STARTCHAR Oacute
ENCODING 211
SWIDTH 866 0
DWIDTH 26 0
BBX 24 25 1 0
BITMAP
001F00
003F00
003E00
000000
000000
00FF80
03FFE0
0FFFF8
1FFFFC
3FC1FE
7F00FE
7E007F
FE003F
FC003F
FC003F
FC003F
FC003F
FC007F
FE007E
7F00FE
7F83FC
3FFFF8
1FFFF0
07FFE0
00FF00
ENDCHAR
STARTCHAR Ocircumflex
ENCODING 212
SWIDTH 866 0
DWIDTH 26 0
BBX 24 25 1 0
BITMAP
003F80
003F80
007BC0
000000
000000
00FF80
03FFE0
0FFFF8
1FFFFC
3FC1FE
7F00FE
7E007F
FE003F
FC003F
FC003F
FC003F
FC003F
FC007F
FE007E
7F00FE
7F83FC
3FFFF8
1FFFF0
07FFE0
00FF00
ENDCHAR
STARTCHAR Otilde
ENCODING 213
SWIDTH 866 0
DWIDTH 26 0
BBX 24 26 1 0
BITMAP
0038C0
007FC0
007F80
006780
000000
000000
00FF80
03FFE0
0FFFF8
1FFFFC
3FC1FE
7F00FE
7E007F
FE003F
FC003F
FC003F
FC003F
FC003F
FC007F
FE007E
7F00FE
7F83FC
3FFFF8
1FFFF0
07FFE0
00FF00
ENDCHAR
STARTCHAR Odieresis
ENCODING 214
SWIDTH 866 0
DWIDTH 26 0
BBX 24 25 1 0
BITMAP
00F3C0
00F3C0
00F3C0
000000
000000
00FF80
03FFE0
0FFFF8
1FFFFC
3FC1FE
7F00FE
7E007F
FE003F
FC003F
FC003F
FC003F
FC003F
FC007F
FE007E
7F00FE
7F83FC
3FFFF8
1FFFF0
07FFE0
00FF00
ENDCHAR
STARTCHAR multiply
ENCODING 215
SWIDTH 651 0
DWIDTH 20 0
BBX 14 13 3 4
BITMAP
3018
783C
FC7C
3EF8
3FF0
1FE0
0FC0
1FE0
3FF0
7CF8
787C
F03C
6018
ENDCHAR
STARTCHAR Oslash
ENCODING 216
SWIDTH 854 0
DWIDTH 26 0
BBX 24 24 1 -2
BITMAP
00003E
00007C
00FFF8
07FFF0
0FFFF8
1FFFFC
3FC3FE
7F07FE
7E0F7F
FE0F7F
FC1E3F
FC3C3F
FC7C3F
FC783F
FCF07F
FFE07E
7FE0FE
7FC3FC
3FFFF8
1FFFF0
1FFFE0
1FFF00
3E0000
7C0000
ENDCHAR
STARTCHAR Ugrave
ENCODING 217
SWIDTH 777 0
DWIDTH 23 0
BBX 20 25 2 0
BITMAP
03E000
03F000
01F000
000000
000000
7E03F0
7E03F0
7E03F0
7E03F0
7E03F0
7E03F0
7C07E0
FC07E0
FC07E0
FC07E0
FC07E0
FC07E0
FC07E0
FC07E0
FE0FE0
FF1FE0
7FFFC0
7FFF80
1FFF00
07F800
ENDCHAR
STARTCHAR Uacute
ENCODING 218
SWIDTH 777 0
DWIDTH 23 0
BBX 20 25 2 0
BITMAP
00FC00
00F800
00F800
000000
000000
7E03F0
7E03F0
7E03F0
7E03F0
7E03F0
7E03F0
7C07E0
FC07E0
FC07E0
FC07E0
FC07E0
FC07E0
FC07E0
FC07E0
FE0FE0
FF1FE0
7FFFC0
7FFF80
1FFF00
07F800
ENDCHAR
STARTCHAR Ucircumflex
ENCODING 219
SWIDTH 777 0
DWIDTH 23 0
BBX 20 25 2 0
BITMAP
00FE00
01FE00
01DE00
000000
000000
7E03F0
7E03F0
7E03F0
7E03F0
7E03F0
7E03F0
7C07E0
FC07E0
FC07E0
FC07E0
FC07E0
FC07E0
FC07E0
FC07E0
FE0FE0
FF1FE0
7FFFC0
7FFF80
1FFF00
07F800
ENDCHAR
STARTCHAR Udieresis
ENCODING 220
SWIDTH 777 0
DWIDTH 23 0
BBX 20 25 2 0
BITMAP
03CF00
03CF00
03CF00
000000
000000
7E03F0
7E03F0
7E03F0
7E03F0
7E03F0
7E03F0
7C07E0
FC07E0
FC07E0
FC07E0
FC07E0
FC07E0
FC07E0
FC07E0
FE0FE0
FF1FE0
7FFFC0
7FFF80
1FFF00
07F800
ENDCHAR
STARTCHAR Yacute
ENCODING 221
SWIDTH 645 0
DWIDTH 19 0
BBX 21 25 0 0
BITMAP
00FC00
00F800
00F800
000000
000000
FE03F8
7E07F0
7F07E0
3F0FE0
3F8FC0
1F9FC0
0FDF80
0FFF00
07FF00
03FE00
03FC00
01FC00
01F800
01F800
01F800
01F800
01F000
03F000
03F000
03F000
ENDCHAR
STARTCHAR Thorn
ENCODING 222
SWIDTH 638 0
DWIDTH 19 0
BBX 17 20 2 0
BITMAP
7E0000
7E0000
7E0000
7FFC00
7FFE00
7FFF00
7FFF80
7E3F80
7E1F80
7C1F80
7C3F80
7DFF00
7DFF00
7CFE00
FCF800
FC0000
FC0000
FC0000
FC0000
FC0000
ENDCHAR
STARTCHAR germandbls
ENCODING 223
SWIDTH 654 0
DWIDTH 20 0
BBX 18 20 1 0
BITMAP
07F800
1FFE00
3FFF00
3FFF00
7F1F00
7E1F00
7E1E00
7E7C00
7E7800
7E7C00
7E7E00
7E3F00
7E1F80
7C0FC0
7C0FC0
FC0FC0
FCFFC0
FCFF80
FCFF00
FCFE00
ENDCHAR
STARTCHAR agrave
ENCODING 224
SWIDTH 605 0
DWIDTH 18 0
BBX 15 20 1 0
BITMAP
0FC0
07E0
03E0
0000
0000
3FF8
3FFC
3FFE
007E
007E
01FE
1FFE
3FFE
7F7E
FC7E
F87E
F87E
FFFE
7F7E
3F7E
ENDCHAR
STARTCHAR aacute
ENCODING 225
SWIDTH 605 0
DWIDTH 18 0
BBX 15 20 1 0
BITMAP
01F8
03F0
03E0
0000
0000
3FF8
3FFC
3FFE
007E
007E
01FE
1FFE
3FFE
7F7E
FC7E
F87E
F87E
FFFE
7F7E
3F7E
ENDCHAR
STARTCHAR acircumflex
ENCODING 226
SWIDTH 605 0
DWIDTH 18 0
BBX 15 20 1 0
BITMAP
01F8
03F8
07BC
0000
0000
3FF8
3FFC
3FFE
007E
007E
01FE
1FFE
3FFE
7F7E
FC7E
F87E
F87E
FFFE
7F7E
3F7E
ENDCHAR
STARTCHAR atilde
ENCODING 227
SWIDTH 605 0
DWIDTH 18 0
BBX 15 21 1 0
BITMAP
038C
07FC
07FC
0678
0000
0000
3FF8
3FFC
3FFE
007E
007E
01FE
1FFE
3FFE
7F7E
FC7E
F87E
F87E
FFFE
7F7E
3F7E
ENDCHAR
STARTCHAR adieresis
ENCODING 228
SWIDTH 605 0
DWIDTH 18 0
BBX 15 20 1 0
BITMAP
0F3C
0F3C
0F3C
0000
0000
3FF8
3FFC
3FFE
007E
007E
01FE
1FFE
3FFE
7F7E
FC7E
F87E
F87E
FFFE
7F7E
3F7E
ENDCHAR
STARTCHAR aring
ENCODING 229
SWIDTH 605 0
DWIDTH 18 0
BBX 15 23 1 0
BITMAP
00E0
01F0
01B0
01B0
01F0
00E0
0000
0000
3FF8
3FFC
3FFE
007E
007E
01FE
1FFE
3FFE
7F7E
FC7E
F87E
F87E
FFFE
7F7E
3F7E
ENDCHAR
STARTCHAR ae
ENCODING 230
SWIDTH 888 0
DWIDTH 27 0
BBX 25 15 1 0
BITMAP
0FF8F800
0FFFFE00
1FFFFF00
003F1F80
003E0F80
00FE0F80
0FFFFF80
3FFFFF80
7FFE0000
FE3E0000
FC3F0000
FC1FFF00
FFCFFE00
7F87FE00
1F81F800
ENDCHAR
STARTCHAR ccedilla
ENCODING 231
SWIDTH 505 0
DWIDTH 15 0
BBX 13 20 1 -5
BITMAP
07F8
1FF8
3FF8
7FF8
7F00
FE00
FC00
FC00
FC00
FC00
FE00
7FF8
7FF8
3FF0
0FF0
0000
03E0
07C0
0FC0
1F80
ENDCHAR
STARTCHAR egrave
ENCODING 232
SWIDTH 591 0
DWIDTH 18 0
BBX 16 20 1 0
BITMAP
0FC0
0FC0
07C0
0000
0000
07F0
1FFC
3FFE
7E3E
7E1F
FC1F
FFFF
FFFF
FC00
FC00
FE00
7FFE
7FFC
1FFC
0FF8
ENDCHAR
STARTCHAR eacute
ENCODING 233
SWIDTH 591 0
DWIDTH 18 0
BBX 16 20 1 0
BITMAP
03F0
03E0
03E0
0000
0000
07F0
1FFC
3FFE
7E3E
7E1F
FC1F
FFFF
FFFF
FC00
FC00
FE00
7FFE
7FFC
1FFC
0FF8
ENDCHAR
STARTCHAR ecircumflex
ENCODING 234
SWIDTH 591 0
DWIDTH 18 0
BBX 16 20 1 0
BITMAP
03F8
03F8
0778
0000
0000
07F0
1FFC
3FFE
7E3E
7E1F
FC1F
FFFF
FFFF
FC00
FC00
FE00
7FFE
7FFC
1FFC
0FF8
ENDCHAR
STARTCHAR edieresis
ENCODING 235
SWIDTH 591 0
DWIDTH 18 0
BBX 16 20 1 0
BITMAP
0F3C
0F3C
1F78
0000
0000
07F0
1FFC
3FFE
7E3E
7E1F
FC1F
FFFF
FFFF
FC00
FC00
FE00
7FFE
7FFC
1FFC
0FF8
ENDCHAR
STARTCHAR igrave
ENCODING 236
SWIDTH 312 0
DWIDTH 9 0
BBX 7 20 1 0
BITMAP
F8
FC
7C
00
00
7E
7E
7E
7E
7C
7C
7C
7C
7C
7C
7C
FC
FC
FC
FC
ENDCHAR
STARTCHAR iacute
ENCODING 237
SWIDTH 312 0
DWIDTH 9 0
BBX 8 20 1 0
BITMAP
3F
3E
7E
00
00
7E
7E
7E
7E
7C
7C
7C
7C
7C
7C
7C
FC
FC
FC
FC
ENDCHAR
STARTCHAR icircumflex
ENCODING 238
SWIDTH 312 0
DWIDTH 9 0
BBX 9 20 1 0
BITMAP
3F00
7F80
7780
0000
0000
7E00
7E00
7E00
7E00
7C00
7C00
7C00
7C00
7C00
7C00
7C00
7C00
FC00
FC00
FC00
ENDCHAR
STARTCHAR idieresis
ENCODING 239
SWIDTH 312 0
DWIDTH 9 0
BBX 10 20 1 0
BITMAP
F3C0
F3C0
F3C0
0000
0000
7E00
7E00
7E00
7E00
7E00
7E00
7E00
7E00
7E00
7E00
7E00
7C00
7C00
7C00
FC00
ENDCHAR
STARTCHAR eth
ENCODING 240
SWIDTH 648 0
DWIDTH 19 0
BBX 18 23 1 0
BITMAP
008000
01D000
03F800
01F800
07F000
03F800
007800
003C00
03FE00
1FFE00
3FFF00
7FFF80
7E1F80
FE0FC0
FC0FC0
FC0FC0
FC0FC0
FC1FC0
7E1F80
7FFF80
3FFF00
1FFE00
07F800
ENDCHAR
STARTCHAR ntilde
ENCODING 241
SWIDTH 679 0
DWIDTH 20 0
BBX 17 21 1 0
BITMAP
01C600
03FE00
03FC00
033C00
000000
000000
7E7E00
7FFF00
7FFF80
7FFF80
7FFF80
7F3F80
7E1F80
7E1F80
7E1F80
7C1F80
FC1F80
FC1F80
FC1F80
FC1F80
FC1F80
ENDCHAR
STARTCHAR ograve
ENCODING 242
SWIDTH 648 0
DWIDTH 19 0
BBX 17 20 1 0
BITMAP
07C000
07E000
03E000
000000
000000
07F000
1FFC00
3FFE00
7FFF00
7E3F80
FC1F80
FC1F80
FC1F80
FC1F80
FC1F80
7E3F00
7FFF00
3FFE00
1FFC00
07F000
ENDCHAR
STARTCHAR oacute
ENCODING 243
SWIDTH 648 0
DWIDTH 19 0
BBX 17 20 1 0
BITMAP
01F800
01F000
03F000
000000
000000
07F000
1FFC00
3FFE00
7FFF00
7E3F80
FC1F80
FC1F80
FC1F80
FC1F80
FC1F80
7E3F00
7FFF00
3FFE00
1FFC00
07F000
ENDCHAR
STARTCHAR ocircumflex
ENCODING 244
SWIDTH 648 0
DWIDTH 19 0
BBX 17 20 1 0
BITMAP
01F800
03FC00
03BC00
000000
000000
07F000
1FFC00
3FFE00
7FFF00
7E3F80
FC1F80
FC1F80
FC1F80
FC1F80
FC1F80
7E3F00
7FFF00
3FFE00
1FFC00
07F000
ENDCHAR
STARTCHAR otilde
ENCODING 245
SWIDTH 648 0
DWIDTH 19 0
BBX 17 21 1 0
BITMAP
03CC00
03FC00
07FC00
063800
000000
000000
07F000
1FFC00
3FFE00
7FFF00
7E3F80
FC1F80
FC1F80
FC1F80
FC1F80
FC1F80
7E3F00
7FFF00
3FFE00
1FFC00
07F000
ENDCHAR
STARTCHAR odieresis
ENCODING 246
SWIDTH 648 0
DWIDTH 19 0
BBX 17 20 1 0
BITMAP
0F3C00
0F3C00
0F3C00
000000
000000
07F000
1FFC00
3FFE00
7FFF00
7E3F80
FC1F80
FC1F80
FC1F80
FC1F80
FC1F80
7E3F00
7FFF00
3FFE00
1FFC00
07F000
ENDCHAR
STARTCHAR divide
ENCODING 247
SWIDTH 651 0
DWIDTH 20 0
BBX 17 16 1 2
BITMAP
01E000
01E000
01E000
01E000
000000
000000
FFFF80
FFFF80
FFFF80
FFFF80
000000
000000
03C000
03C000
03C000
03C000
ENDCHAR
STARTCHAR oslash
ENCODING 248
SWIDTH 645 0
DWIDTH 19 0
BBX 17 17 1 -1
BITMAP
001F00
03FE00
1FFC00
3FFE00
7FFF00
7E3F80
FC1F80
FC1F80
FC1F80
FC1F80
FC1F80
FE3F00
7FFF00
3FFE00
1FFC00
3FE000
7C0000
ENDCHAR
STARTCHAR ugrave
ENCODING 249
SWIDTH 657 0
DWIDTH 20 0
BBX 18 20 1 0
BITMAP
07E000
07E000
03E000
000000
000000
7E0FC0
7E0FC0
7E0FC0
7E0FC0
7C0FC0
7C0F80
7C0F80
FC1F80
FC1F80
FE3F80
FFFF80
FFFF80
FFFF80
7FFF80
1F9F80
ENDCHAR
STARTCHAR uacute
ENCODING 250
SWIDTH 657 0
DWIDTH 20 0
BBX 18 20 1 0
BITMAP
01F800
01F000
01F000
000000
000000
7E0FC0
7E0FC0
7E0FC0
7E0FC0
7C0FC0
7C0F80
7C0F80
FC1F80
FC1F80
FE3F80
FFFF80
FFFF80
FFFF80
7FFF80
1F9F80
ENDCHAR
STARTCHAR ucircumflex
ENCODING 251
SWIDTH 657 0
DWIDTH 20 0
BBX 18 20 1 0
BITMAP
01FC00
03FC00
03BC00
000000
000000
7E0FC0
7E0FC0
7E0FC0
7E0FC0
7C0FC0
7C0F80
7C0F80
FC1F80
FC1F80
FE3F80
FFFF80
FFFF80
FFFF80
7FFF80
1F9F80
ENDCHAR
STARTCHAR udieresis
ENCODING 252
SWIDTH 657 0
DWIDTH 20 0
BBX 18 20 1 0
BITMAP
079E00
07BC00
0F3C00
000000
000000
7E0FC0
7E0FC0
7E0FC0
7E0FC0
7C0FC0
7C0F80
7C0F80
FC1F80
FC1F80
FE3F80
FFFF80
FFFF80
FFFF80
7FFF80
1F9F80
ENDCHAR
STARTCHAR yacute
ENCODING 253
SWIDTH 591 0
DWIDTH 18 0
BBX 19 27 0 -7
BITMAP
01F800
01F000
01F000
000000
000000
7E07E0
3E07C0
3F0FC0
3F0F80
1F1F80
1F1F80
1F9F00
0FBF00
0FBE00
0FBE00
07FC00
07FC00
07F800
03F800
03F800
03F000
03F000
07E000
FFE000
FFC000
7F8000
7F0000
ENDCHAR
STARTCHAR thorn
ENCODING 254
SWIDTH 658 0
DWIDTH 20 0
BBX 18 27 1 -7
BITMAP
7E0000
7E0000
7E0000
7E0000
7E0000
7EF800
7FFE00
7FFF00
7FFF80
7E1F80
7E0FC0
7C0FC0
7C0FC0
7C0FC0
7E1FC0
7E1FC0
7FFF80
FFFF00
FFFF00
FCFC00
FC0000
FC0000
FC0000
FC0000
FC0000
FC0000
FC0000
ENDCHAR
STARTCHAR ydieresis
ENCODING 255
SWIDTH 591 0
DWIDTH 18 0
BBX 19 27 0 -7
BITMAP
0F1C00
0F3C00
0F3C00
000000
000000
7E07E0
3E07C0
3F0FC0
3F0F80
1F1F80
1F1F80
1F9F00
0FBF00
0FBE00
0FBE00
07FC00
07FC00
07F800
03F800
03F800
03F000
03F000
07E000
FFE000
FFC000
7F8000
7F0000
ENDCHAR
STARTCHAR dotlessi
ENCODING 305
SWIDTH 312 0
DWIDTH 9 0
BBX 7 15 1 0
BITMAP
7E
7E
7E
7E
7C
7C
7C
7C
7C
7C
7C
FC
FC
FC
FC
ENDCHAR
STARTCHAR Lslash
ENCODING 321
SWIDTH 585 0
DWIDTH 18 0
BBX 19 20 -1 0
BITMAP
1F8000
1F8000
1F8000
1F8400
1F8C00
1FBC00
1FFC00
1FFC00
1FF000
1FE000
7F8000
FF0000
FF0000
FF0000
FF0000
BF0000
3FFFE0
3FFFE0
3FFFE0
3FFFE0
ENDCHAR
STARTCHAR lslash
ENCODING 322
SWIDTH 322 0
DWIDTH 10 0
BBX 11 20 -1 0
BITMAP
1F80
1F80
1F80
1F80
1F80
1FE0
1FE0
1FE0
1FE0
3FC0
7F80
FF00
FF00
FF00
FF00
3F00
3F00
3F00
3F00
3F00
ENDCHAR
STARTCHAR OE
ENCODING 338
SWIDTH 1068 0
DWIDTH 32 0
BBX 30 20 1 0
BITMAP
01FFFFFC
07FFFFFC
1FFFFFFC
3FFFFFFC
3FC0FC00
7F00FC00
7E00FC00
FE00FC00
FC00FFF0
FC00FFF0
FC01FFF0
FC01FFF0
FC01F800
FE01F800
7F01F800
7F81F800
3FFFFFF8
1FFFFFF8
0FFFFFF8
01FFFFF8
ENDCHAR
STARTCHAR oe
ENCODING 339
SWIDTH 974 0
DWIDTH 29 0
BBX 27 15 1 0
BITMAP
07F07E00
1FFDFF80
3FFFFFC0
7FFFC7C0
7E1F83E0
FE0F83E0
FC0FFFE0
FC0FFFE0
FC0F8000
FC1F8000
FE1FE000
7FFFFFC0
3FFFFF80
1FF9FF80
07E07E00
ENDCHAR
STARTCHAR Scaron
ENCODING 352
SWIDTH 552 0
DWIDTH 17 0
BBX 15 25 1 0
BITMAP
0F78
07F0
07E0
0000
0000
07FE
1FFE
3FFE
7FFE
7F00
7E00
7E00
3F00
3FC0
1FE0
07F8
03FC
00FC
007E
007E
00FE
FFFC
FFFC
FFF8
FFE0
ENDCHAR
STARTCHAR scaron
ENCODING 353
SWIDTH 482 0
DWIDTH 14 0
BBX 12 20 1 0
BITMAP
1EF0
1FE0
0FC0
0000
0000
0FF0
3FF0
7FF0
7FF0
7E00
7F00
3F80
1FC0
0FE0
07F0
03F0
FFF0
FFF0
FFE0
FF80
ENDCHAR
STARTCHAR Ydieresis
ENCODING 376
SWIDTH 645 0
DWIDTH 19 0
BBX 21 25 0 0
BITMAP
03CF00
03CF00
079E00
000000
000000
FE03F8
7E07F0
7F07E0
3F0FE0
3F8FC0
1F9FC0
0FDF80
0FFF00
07FF00
03FE00
03FC00
01FC00
01F800
01F800
01F800
01F800
01F000
03F000
03F000
03F000
ENDCHAR
STARTCHAR Zcaron
ENCODING 381
SWIDTH 666 0
DWIDTH 20 0
BBX 19 25 1 0
BITMAP
03DC00
03FC00
01F800
000000
000000
7FFFE0
7FFFE0
7FFFE0
7FFFE0
001FE0
001FC0
003F80
007F00
00FE00
01FC00
03F800
07F000
1FE000
3F8000
7F0000
FE0000
FFFFC0
FFFFC0
FFFFC0
FFFFC0
ENDCHAR
STARTCHAR zcaron
ENCODING 382
SWIDTH 523 0
DWIDTH 16 0
BBX 14 20 1 0
BITMAP
0EF0
0FE0
0FE0
0000
0000
7FFC
7FFC
7FFC
7FFC
01FC
03F8
07F0
1FE0
3FC0
7F80
FF00
FFFC
FFFC
FFFC
FFFC
ENDCHAR
STARTCHAR florin
ENCODING 402
SWIDTH 651 0
DWIDTH 20 0
BBX 18 26 0 -4
BITMAP
001FC0
003FC0
007FC0
007FC0
00FC00
00F800
03FF00
03FF00
07FE00
07FE00
01F000
01F000
01F000
01F000
03E000
03E000
03E000
03E000
03E000
07E000
07C000
0FC000
7FC000
FF8000
FF8000
FE0000
ENDCHAR
STARTCHAR circumflex
ENCODING 710
SWIDTH 500 0
DWIDTH 15 0
BBX 9 3 4 17
BITMAP
3F00
7F00
F780
ENDCHAR
STARTCHAR caron
ENCODING 711
SWIDTH 500 0
DWIDTH 15 0
BBX 9 3 4 17
BITMAP
F780
FF00
7E00
ENDCHAR
STARTCHAR macron
ENCODING 713
SWIDTH 500 0
DWIDTH 15 0
BBX 9 2 3 17
BITMAP
FF80
FF80
ENDCHAR
STARTCHAR breve
ENCODING 728
SWIDTH 500 0
DWIDTH 15 0
BBX 9 4 4 17
BITMAP
C180
E380
7F00
3E00
ENDCHAR
STARTCHAR dotaccent
ENCODING 729
SWIDTH 500 0
DWIDTH 15 0
BBX 4 4 6 17
BITMAP
F0
F0
F0
F0
ENDCHAR
STARTCHAR ring
ENCODING 730
SWIDTH 500 0
DWIDTH 15 0
BBX 6 6 6 17
BITMAP
78
FC
CC
CC
FC
78
ENDCHAR
STARTCHAR ogonek
ENCODING 731
SWIDTH 500 0
DWIDTH 15 0
BBX 6 6 8 -6
BITMAP
70
60
E0
E0
FC
7C
ENDCHAR
STARTCHAR tilde
ENCODING 732
SWIDTH 500 0
DWIDTH 15 0
BBX 9 4 4 17
BITMAP
7180
FF80
FF80
CF00
ENDCHAR
STARTCHAR hungarumlaut
ENCODING 733
SWIDTH 500 0
DWIDTH 15 0
BBX 12 3 3 17
BITMAP
7DF0
FBE0
F3C0
ENDCHAR
STARTCHAR pi
ENCODING 960
SWIDTH 644 0
DWIDTH 19 0
BBX 18 14 1 0
BITMAP
FFFFC0
FFFFC0
FFFFC0
FFFFC0
3E1F00
3E1F00
3E1F00
3E1F00
3E1F00
3E1F00
3E1F00
3E1F00
3E1F00
3E1F00
ENDCHAR
STARTCHAR endash
ENCODING 8211
SWIDTH 651 0
DWIDTH 20 0
BBX 18 4 1 6
BITMAP
FFFFC0
FFFFC0
FFFFC0
FFFFC0
ENDCHAR
STARTCHAR emdash
ENCODING 8212
SWIDTH 823 0
DWIDTH 25 0
BBX 25 4 0 6
BITMAP
FFFFFF80
FFFFFF80
FFFFFF80
FFFFFF80
ENDCHAR
STARTCHAR quoteleft
ENCODING 8216
SWIDTH 230 0
DWIDTH 7 0
BBX 6 6 1 14
BITMAP
1C
3C
38
78
78
F0
ENDCHAR
STARTCHAR quoteright
ENCODING 8217
SWIDTH 246 0
DWIDTH 7 0
BBX 6 6 1 14
BITMAP
3C
38
78
70
70
E0
ENDCHAR
STARTCHAR quotesinglbase
ENCODING 8218
SWIDTH 246 0
DWIDTH 7 0
BBX 6 6 0 -3
BITMAP
3C
78
78
70
F0
E0
ENDCHAR
STARTCHAR quotedblleft
ENCODING 8220
SWIDTH 436 0
DWIDTH 13 0
BBX 12 6 1 14
BITMAP
1C70
3CF0
38E0
79E0
79E0
F3C0
ENDCHAR
STARTCHAR quotedblright
ENCODING 8221
SWIDTH 451 0
DWIDTH 14 0
BBX 12 6 1 14
BITMAP
3CF0
79E0
79E0
71C0
F3C0
E380
ENDCHAR
STARTCHAR quotedblbase
ENCODING 8222
SWIDTH 425 0
DWIDTH 13 0
BBX 12 6 0 -3
BITMAP
3CF0
79E0
79E0
71C0
F3C0
E380
ENDCHAR
STARTCHAR dagger
ENCODING 8224
SWIDTH 601 0
DWIDTH 18 0
BBX 15 27 2 -7
BITMAP
07E0
07E0
07E0
07E0
07E0
07E0
FFFE
FFFE
FFFE
FFFE
07E0
07E0
07E0
07C0
0FC0
0FC0
0FC0
0FC0
0FC0
0FC0
0FC0
0FC0
0FC0
0FC0
0FC0
0FC0
0FC0
ENDCHAR
STARTCHAR daggerdbl
ENCODING 8225
SWIDTH 601 0
DWIDTH 18 0
BBX 15 27 2 -7
BITMAP
07E0
07E0
07E0
07E0
07E0
07E0
FFFE
FFFE
FFFE
FFFE
07E0
07E0
07E0
07C0
07C0
0FC0
0FC0
FFFE
FFFE
FFFE
FFFE
0FC0
0FC0
0FC0
0FC0
0FC0
0FC0
ENDCHAR
STARTCHAR bullet
ENCODING 8226
SWIDTH 664 0
DWIDTH 20 0
BBX 8 8 6 6
BITMAP
3C
7E
FF
FF
FF
FF
7E
3C
ENDCHAR
STARTCHAR ellipsis
ENCODING 8230
SWIDTH 889 0
DWIDTH 27 0
BBX 23 5 1 0
BITMAP
F87C3E
F87C3E
F87C3E
F87C3E
F87C3E
ENDCHAR
STARTCHAR perthousand
ENCODING 8240
SWIDTH 1309 0
DWIDTH 39 0
BBX 38 20 1 0
BITMAP
1F00F00000
3FC0E00000
7FC1E00000
7BE1C00000
F1E3800000
F1E3800000
F1E7000000
F1E73E03E0
F1EE7F87F8
F3DEFF8FF8
7FDCF7CF7C
7FBDE3DE3C
1F39E3DE3C
0079E3DE3C
0071E3DE3C
00E1E3DE3C
00E1E79E78
01C0FF8FF8
01C0FF0FF0
03803E03E0
ENDCHAR
STARTCHAR quilsinglleft
ENCODING 8249
SWIDTH 311 0
DWIDTH 9 0
BBX 6 10 1 2
BITMAP
3C
3C
78
78
F8
F8
78
7C
3C
3C
ENDCHAR
STARTCHAR quilsinglright
ENCODING 8250
SWIDTH 313 0
DWIDTH 9 0
BBX 6 10 1 2
BITMAP
F0
F8
78
78
7C
7C
78
F8
F0
F0
ENDCHAR
STARTCHAR Euro
ENCODING 8364
SWIDTH 681 0
DWIDTH 20 0
BBX 18 20 1 0
BITMAP
007FC0
03FFC0
07FFC0
0FFFC0
1FE000
3FC000
3F8000
FFFF80
FFFF80
7E0000
7E0000
FFFF80
FFFF80
7F0000
3F8000
3FC000
1FFFC0
0FFFC0
03FF80
00FF80
ENDCHAR
STARTCHAR trademark
ENCODING 8482
SWIDTH 943 0
DWIDTH 28 0
BBX 26 11 1 9
BITMAP
FFEF07C0
FFEF8FC0
FFEF8FC0
1E0F8FC0
1E0FDFC0
1E0FDDC0
1E1DFDC0
1E1DF9C0
1E1DF9C0
1E1CF9C0
1E1CF1C0
ENDCHAR
STARTCHAR Omega
ENCODING 8486
SWIDTH 664 0
DWIDTH 20 0
BBX 19 20 1 0
BITMAP
03F800
0FFE00
1FFF00
3FFF80
7F1FC0
7C07C0
FC07E0
F803E0
F803E0
F803E0
F803E0
F803E0
7803C0
7C07C0
3C0780
1E0F00
FF1FE0
FF1FE0
FF1FE0
FF1FE0
ENDCHAR
STARTCHAR partialdiff
ENCODING 8706
SWIDTH 497 0
DWIDTH 15 0
BBX 14 20 0 0
BITMAP
3800
3F00
7FC0
7FE0
0FF0
01F0
0078
0FF8
3FFC
7FFC
7FFC
F87C
F03C
F03C
F03C
F878
7FF8
7FF0
3FE0
0FC0
ENDCHAR
STARTCHAR increment
ENCODING 8710
SWIDTH 669 0
DWIDTH 20 0
BBX 19 20 0 0
BITMAP
01F000
03F800
03F800
03F800
07FC00
07BC00
07BC00
0FBE00
0F1E00
0F1E00
1F1F00
1E0F00
1E0F00
3E0F80
3C0780
3C0780
7FFFC0
7FFFC0
7FFFC0
FFFFE0
ENDCHAR
STARTCHAR product
ENCODING 8719
SWIDTH 666 0
DWIDTH 20 0
BBX 18 31 1 -8
BITMAP
FFFFC0
FFFFC0
FFFFC0
FFFFC0
3C0F00
3C0F00
3C0F00
3C0F00
3C0F00
3C0F00
3C0F00
3C0F00
3C0F00
3C0F00
3C0F00
3C0F00
3C0F00
3C0F00
3C0F00
3C0F00
3C0F00
3C0F00
3C0F00
3C0F00
3C0F00
3C0F00
3C0F00
FF3FC0
FF3FC0
FF3FC0
FF3FC0
ENDCHAR
STARTCHAR summation
ENCODING 8721
SWIDTH 664 0
DWIDTH 20 0
BBX 18 31 1 -8
BITMAP
FFFFC0
FFFFC0
FFFFC0
FFFFC0
FFFFC0
FC0FC0
7E0FC0
7F07C0
3F0000
1F8000
0FC000
0FC000
07E000
03F000
01F800
01F800
03F000
07E000
07E000
0FC000
1F8000
1F8000
3F0000
7E07C0
7E07C0
FC07C0
FFFFC0
FFFFC0
FFFFC0
FFFFC0
FFFFC0
ENDCHAR
STARTCHAR minus
ENCODING 8722
SWIDTH 651 0
DWIDTH 20 0
BBX 17 4 1 8
BITMAP
FFFF80
FFFF80
FFFF80
FFFF80
ENDCHAR
STARTCHAR fraction
ENCODING 8725
SWIDTH 109 0
DWIDTH 3 0
BBX 14 20 -5 0
BITMAP
003C
0038
0078
0070
00F0
00E0
01C0
01C0
0380
0380
0700
0700
0E00
0E00
1C00
3C00
3800
7800
7000
F000
ENDCHAR
STARTCHAR periodcentered
ENCODING 8729
SWIDTH 207 0
DWIDTH 6 0
BBX 6 6 0 7
BITMAP
FC
FC
FC
FC
FC
FC
ENDCHAR
STARTCHAR radical
ENCODING 8730
SWIDTH 664 0
DWIDTH 20 0
BBX 20 25 0 0
BITMAP
001FF0
001FF0
001FF0
001FF0
003E00
003E00
003E00
007C00
007C00
007C00
007C00
00F800
00F800
F8F800
FCF800
FDF000
FDF000
1DF000
1DF000
1DE000
1FE000
1FE000
0FE000
0FC000
0FC000
ENDCHAR
STARTCHAR infinity
ENCODING 8734
SWIDTH 664 0
DWIDTH 20 0
BBX 19 10 0 5
BITMAP
1E0F00
7F1FC0
7FBFC0
F9F3E0
F1E1E0
F0F1E0
F9F3E0
7FBFC0
7F9FC0
1E0F00
ENDCHAR
STARTCHAR integral
ENCODING 8747
SWIDTH 498 0
DWIDTH 15 0
BBX 13 30 1 -7
BITMAP
01F8
03F8
07F8
0FF0
0FF0
0FC0
0F80
0F80
0F80
0F80
0F80
0F80
0F80
0F80
0F80
0F80
0F80
0F80
0F80
0F80
0F80
0F80
0F80
0F80
1F80
7F80
7F00
FF00
FE00
F800
ENDCHAR
STARTCHAR approxequal
ENCODING 8776
SWIDTH 497 0
DWIDTH 15 0
BBX 15 14 0 3
BITMAP
1E08
3F9C
7FFE
7FFC
FFFC
73F8
20F0
1E08
3F9C
7FFE
7FFC
FFFC
73F8
20F0
ENDCHAR
STARTCHAR notequal
ENCODING 8800
SWIDTH 651 0
DWIDTH 20 0
BBX 18 19 1 0
BITMAP
001800
003C00
003800
003800
FFFFC0
FFFFC0
FFFFC0
FFFFC0
00E000
01C000
FFFFC0
FFFFC0
FFFFC0
FFFFC0
078000
070000
070000
0E0000
060000
ENDCHAR
STARTCHAR lessequal
ENCODING 8804
SWIDTH 497 0
DWIDTH 15 0
BBX 13 21 1 -1
BITMAP
0008
0078
01F8
0FF8
3FF8
FFF0
FF80
FC00
FF80
FFF0
3FF8
0FF8
01F8
0078
0008
0000
FFF8
FFF8
FFF8
FFF8
FFF8
ENDCHAR
STARTCHAR greaterequal
ENCODING 8805
SWIDTH 497 0
DWIDTH 15 0
BBX 13 21 1 -1
BITMAP
8000
F000
FC00
FF80
FFE0
7FF8
0FF8
01F8
0FF8
7FF8
FFE0
FF80
FC00
F000
8000
0000
FFF8
FFF8
FFF8
FFF8
FFF8
ENDCHAR
STARTCHAR lozenge
ENCODING 9674
SWIDTH 664 0
DWIDTH 20 0
BBX 15 21 2 0
BITMAP
0100
0380
06C0
06C0
0C60
1830
1830
3018
600C
C006
C006
C006
600C
3018
1830
1830
0C60
06C0
06C0
0380
0100
ENDCHAR
STARTCHAR fi
ENCODING 61441
SWIDTH 684 0
DWIDTH 21 0
BBX 19 21 1 0
BITMAP
0FE000
1FE7E0
3FE7E0
3FE7E0
3E0000
3E0000
FFC7E0
FFC7E0
FFC7E0
FFC7E0
3E07C0
3E07C0
3E07C0
7E07C0
7E07C0
7E07C0
7E07C0
7E0FC0
7E0FC0
7E0FC0
7E0FC0
ENDCHAR
STARTCHAR fl
ENCODING 61442
SWIDTH 679 0
DWIDTH 20 0
BBX 18 21 1 0
BITMAP
0FE000
1FEFC0
3FEFC0
3FEFC0
3E0FC0
3E0FC0
FFCFC0
FFCFC0
FFCFC0
FFCF80
3E0F80
3E0F80
3E0F80
7E1F80
7E1F80
7E1F80
7E1F80
7E1F80
7E1F80
7E1F80
7E1F80
ENDCHAR
STARTCHAR .notdef
ENCODING -1
SWIDTH 1000 0
DWIDTH 30 0
BBX 23 23 4 0
BITMAP
FFFFFE
FFFFFE
C00006
C00006
C00006
C00006
C00006
C00006
C00006
C00006
C00006
C00006
C00006
C00006
C00006
C00006
C00006
C00006
C00006
C00006
C00006
FFFFFE
FFFFFE
ENDCHAR
STARTCHAR glyph1
ENCODING -1
SWIDTH 0 0
DWIDTH 0 0
BBX 1 1 0 0
BITMAP
00
ENDCHAR
STARTCHAR glyph2
ENCODING -1
SWIDTH 250 0
DWIDTH 8 0
BBX 1 1 0 0
BITMAP
00
ENDCHAR
ENDFONT
